<svg width="318" height="93" xmlns="http://www.w3.org/2000/svg" viewBox="0 0 318 93">
  <g fill="none">
    <path d="M34.44 14.922v25.425H11.082V14.922H0v60.693h11.085v-24.6h23.352v24.6h11.088V14.922zm46.566 41.076a9.171 9.171 0 1 1-18.345 0V30H52.146v25.998a19.668 19.668 0 0 0 39.336 0V30H81.006zm77.913-23.319c0-5.331 3.525-7.02 7.386-7.02 3.114 0 7.224 2.37 9.915 5.244l6.885-8.118c-3.438-4.65-10.41-7.863-16.119-7.863-11.409 0-19.659 6.681-19.659 17.757 0 20.55 25.116 14.028 25.116 25.53 0 3.546-3.444 6.678-7.386 6.678-6.219 0-8.235-3.039-11.091-6.255l-7.644 7.947c4.89 6 10.92 9.048 18.141 9.048 10.839 0 19.557-6.762 19.557-17.334 0-22.812-25.119-15.723-25.119-25.614m155.4 33.24c-6.213 0-7.98-2.688-7.98-6.804V40.89h9.66v-9.234h-9.66V19.473l-10.662 4.785V61.38c0 9.495 6.552 14.28 15.534 14.28 1.41.024 2.82-.09 4.206-.336L318 65.748c-1.173.081-2.52.162-3.699.162M121.032 30.303c-5.208 0-8.844 1.512-12.36 4.959V15.285h-10.53v37.029c0 13.86 10.02 23.358 21.282 23.358 12.492 0 23.481-9.666 23.481-22.68 0-12.852-10.113-22.68-21.873-22.68m-.066 34.761a11.949 11.949 0 1 1 0-23.901 11.949 11.949 0 0 1 0 23.901M235.392 52.44c0-13.038-10.965-22.68-23.481-22.68-11.259 0-21.282 9.495-21.282 23.358v37.05h10.53V70.164c3.51 3.441 7.152 4.959 12.354 4.959 11.76 0 21.876-9.828 21.876-22.683m-9.969-.132a11.949 11.949 0 1 1-23.901 0 11.949 11.949 0 0 1 23.901 0" fill="#2c3e50"/>
    <path d="M269.418 29.25V18.669a8.16 8.16 0 0 0 4.698-7.344v-.243c0-4.5-3.648-8.148-8.148-8.148h-.243a8.15 8.15 0 0 0-8.148 8.148v.243a8.16 8.16 0 0 0 4.698 7.344V29.25a23.1 23.1 0 0 0-10.971 4.83l-29.019-22.602q.309-1.125.327-2.286a9.18 9.18 0 1 0-9.192 9.162 9 9 0 0 0 4.521-1.23l28.575 22.236a23.145 23.145 0 0 0 .354 26.07l-8.691 8.694a7.5 7.5 0 0 0-2.172-.354 7.539 7.539 0 1 0 7.545 7.545 7.5 7.5 0 0 0-.354-2.172l8.598-8.601a23.184 23.184 0 1 0 17.622-41.292m-3.564 34.8a11.895 11.895 0 1 1 0-23.781 11.895 11.895 0 0 1 .012 23.775" fill="#FF7A59"/>
  </g>
</svg>
