<svg xmlns="http://www.w3.org/2000/svg" width="366" height="83.95" viewBox="0 0 366 83.95">
  <path d="M117.74 56.13c-1.57 0-5.32-.24-6.65-.36v24.92c0 2-.85 3.26-3.63 3.26h-12.1c-2.18 0-3.51-.84-3.51-3.75V3.75c0-3 .85-3.75 3.63-3.75h18.87c14 0 23.71 2.42 29.88 9.19a27 27 0 0 1 6.54 17.91c0 19.48-14.4 29.03-33.03 29.03M117 14.88h-5.92v26.25c1.57.12 5.56.12 6.53.12 9.07 0 13.79-4.6 13.79-13.3.01-9.2-5.31-13.07-14.4-13.07M225.17 84h-46.94c-2.78 0-4-.72-4-3.75V3.39c0-2.06 1.09-3.39 3.14-3.39h48.15c1.94 0 3 1 3 2.18v.6l-1.08 9.8c-.25 2.54-1.82 3-4.72 3h-29.25v18h27.46c2.66 0 3.63 1.33 3.63 3.27v8.83c0 2.42-1.21 3.51-3.51 3.51h-27.58v19.16h31.58c2.17 0 3.5 1 3.5 3.27v8.95c0 2.3-1.08 3.43-3.38 3.43M331 84h-10.33a6.27 6.27 0 0 1-5.33-2.66l-36-48h-.24v46.99c0 2.66-1.21 3.62-3.63 3.62h-11.3c-2.78 0-4-.6-4-3.5V3.75c0-3.14 1.45-3.75 4-3.75h10.16a5.3 5.3 0 0 1 5 2.54l36 48.39h.25V3.51c0-2.66 1.33-3.51 3.75-3.51h11.73c3.14 0 3.39 1.69 3.39 3.75V80.2c.01 3.15-1.32 3.8-3.45 3.8m85.4 0h-46c-2.54 0-3.87-.6-3.87-3.87V3.39C366.56 1.21 367.65 0 370 0h12.22c2.66 0 3.63.85 3.63 3.63v64.11h30.84c2.3 0 3.39 1.34 3.39 3.51v9.2C420 83.11 418.46 84 416.4 84m83.12-80.85L474.11 48v32.69a2.93 2.93 0 0 1-3.26 3.31h-12.71c-2.05 0-3.26-1.21-3.26-3.5V48.87l-26.49-45.6a2.3 2.3 0 0 1-.39-1.21A2.11 2.11 0 0 1 430.32 0H445q3.45 0 4.72 2.54l15.6 30.12h.24l15.57-30.12c1-1.81 2.18-2.54 4.6-2.54h11.73c1.45 0 2.54.48 2.54 1.69a2.9 2.9 0 0 1-.48 1.46" fill="#eaf1f7" transform="scale(0.66, 0.66), translate(22, 22)"/>
  <rect x="15.99" y="8.02" width="44" height="14.62" rx="7.31" fill="#eaf1f7" transform="scale(0.66, 0.66), translate(22, 22)"/>
  <rect x="15.99" y="61.32" width="44" height="14.62" rx="7.31" fill="#eaf1f7" transform="scale(0.66, 0.66), translate(22, 22)"/>
  <rect y="34.67" width="44" height="14.62" rx="7.31" fill="#eaf1f7" transform="scale(0.66, 0.66), translate(22, 22)"/>
</svg>
