<svg xmlns="http://www.w3.org/2000/svg" width="500" height="83.95" viewBox="0 0 500 83.95"><path d="M117.74,56.13c-1.57,0-5.32-.24-6.65-.36V80.69c0,2-.85,3.26-3.63,3.26H95.36c-2.18,0-3.51-.84-3.51-3.75V3.75c0-3,.85-3.75,3.63-3.75h18.87c14,0,23.71,2.42,29.88,9.19a27,27,0,0,1,6.54,17.91C150.77,46.58,136.37,56.13,117.74,56.13ZM117,14.88h-5.92V41.13c1.57.12,5.56.12,6.53.12,9.07,0,13.79-4.6,13.79-13.3C131.41,18.75,126.09,14.88,117,14.88Z" fill="#eaf1f7"/><path d="M225.17,84H178.23c-2.78,0-4-.72-4-3.75V3.39c0-2.06,1.09-3.39,3.14-3.39h48.15c1.94,0,3,1,3,2.18v.6l-1.08,9.8c-.25,2.54-1.82,3-4.72,3H193.47v18h27.46c2.66,0,3.63,1.33,3.63,3.27v8.83c0,2.42-1.21,3.51-3.51,3.51H193.47V68.35h31.58c2.17,0,3.5,1,3.5,3.27v8.95C228.55,82.87,227.47,84,225.17,84Z" fill="#eaf1f7"/><path d="M331,84H320.67a6.27,6.27,0,0,1-5.33-2.66l-36-48h-.24V80.33c0,2.66-1.21,3.62-3.63,3.62H264.17c-2.78,0-4-.6-4-3.5V3.75c0-3.14,1.45-3.75,4-3.75h10.16a5.3,5.3,0,0,1,5,2.54l36,48.39h.25V3.51c0-2.66,1.33-3.51,3.75-3.51h11.73c3.14,0,3.39,1.69,3.39,3.75V80.2C334.46,83.35,333.13,84,331,84Z" fill="#eaf1f7"/><path d="M416.4,84h-46c-2.54,0-3.87-.6-3.87-3.87V3.39C366.56,1.21,367.65,0,370,0h12.22c2.66,0,3.63.85,3.63,3.63V67.74h30.84c2.3,0,3.39,1.34,3.39,3.51v9.2C420,83.11,418.46,84,416.4,84Z" fill="#eaf1f7"/><path d="M499.52,3.15,474.11,48V80.69A2.93,2.93,0,0,1,470.85,84H458.14c-2.05,0-3.26-1.21-3.26-3.5V48.87L428.39,3.27A2.3,2.3,0,0,1,428,2.06,2.11,2.11,0,0,1,430.32,0H445q3.45,0,4.72,2.54l15.6,30.12h.24L481.13,2.54c1-1.81,2.18-2.54,4.6-2.54h11.73c1.45,0,2.54.48,2.54,1.69A2.92,2.92,0,0,1,499.52,3.15Z" fill="#eaf1f7"/><rect x="15.99" y="8.02" width="44" height="14.62" rx="7.31" fill="#eaf1f7"/><rect x="15.99" y="61.32" width="44" height="14.62" rx="7.31" fill="#eaf1f7"/><rect y="34.67" width="44" height="14.62" rx="7.31" fill="#eaf1f7"/></svg>