<svg xmlns="http://www.w3.org/2000/svg" width="720" height="460" viewBox="0 0 720 460" fill="none">
  <g clip-path="url(#a)">
    <path fill="#F8F8FE" d="M0 0h720v460H0z"/>
    <path fill="#fff" d="M83-10h4v475h-4zm94 115c0-5.523 4.477-10 10-10h480c5.523 0 10 4.477 10 10v378H177z"/>
    <circle cx="624" cy="137" r="3" fill="#B6BBC3"/>
    <circle cx="636" cy="137" r="3" fill="#B6BBC3"/>
    <circle cx="648" cy="137" r="3" fill="#B6BBC3"/>
    <path d="M215 152.585V126h3.219v11.838h14.175V126h3.219v26.585h-3.219v-11.891h-14.175v11.891zm35.003.415q-2.883 0-4.972-1.272-2.077-1.285-3.206-3.583-1.116-2.31-1.117-5.374t1.117-5.4q1.13-2.349 3.141-3.66 2.025-1.324 4.725-1.324 1.558 0 3.077.519a7.6 7.6 0 0 1 2.764 1.687q1.246 1.155 1.987 3.064.74 1.908.739 4.699v1.298h-15.369v-2.648h12.254q0-1.687-.675-3.012a5.1 5.1 0 0 0-1.895-2.09q-1.22-.766-2.882-.766-1.83 0-3.167.909a6 6 0 0 0-2.038 2.337 6.86 6.86 0 0 0-.714 3.089v1.765q0 2.26.779 3.83.792 1.557 2.193 2.375 1.402.805 3.259.805 1.206 0 2.18-.337a4.7 4.7 0 0 0 1.701-1.039q.714-.7 1.103-1.739l2.96.83a6.6 6.6 0 0 1-1.571 2.649q-1.103 1.129-2.726 1.765-1.622.623-3.647.623m15.979-27v26.585h-3.063V126zm8.674 0v26.585h-3.063V126zm13.711 27q-2.7 0-4.738-1.285-2.024-1.285-3.167-3.596-1.13-2.31-1.129-5.4 0-3.115 1.129-5.439 1.143-2.324 3.167-3.608 2.038-1.285 4.738-1.285t4.725 1.285q2.038 1.284 3.168 3.608 1.142 2.323 1.142 5.439 0 3.09-1.142 5.4-1.13 2.311-3.168 3.596-2.025 1.285-4.725 1.285m0-2.752q2.052 0 3.375-1.051 1.324-1.052 1.96-2.765t.636-3.713q0-1.998-.636-3.725-.636-1.726-1.96-2.791t-3.375-1.065q-2.05 0-3.375 1.065-1.324 1.065-1.96 2.791-.636 1.727-.636 3.725 0 1.999.636 3.713.637 1.713 1.96 2.765 1.325 1.051 3.375 1.051M306.128 126l-.259 19.108h-3.012l-.26-19.108zm-1.765 26.792q-.961 0-1.649-.688a2.25 2.25 0 0 1-.688-1.648q0-.961.688-1.649a2.25 2.25 0 0 1 1.649-.688q.96 0 1.648.688t.688 1.649q0 .636-.324 1.168a2.4 2.4 0 0 1-.844.857 2.23 2.23 0 0 1-1.168.311" fill="#262647"/>
    <path d="M284.875 183.229v-1.177l4.777-6.069v-.08h-4.622v-1.493h6.763v1.252l-4.593 5.994v.08h4.754v1.493zm11.671.195a3.6 3.6 0 0 1-1.516-.31 2.55 2.55 0 0 1-1.074-.913q-.39-.597-.39-1.464 0-.746.287-1.228.287-.483.775-.764a4 4 0 0 1 1.091-.425 11 11 0 0 1 1.228-.218l1.287-.149q.493-.063.717-.201t.224-.448v-.04q0-.752-.425-1.166-.418-.413-1.251-.413-.867 0-1.367.385-.494.378-.683.844l-1.613-.368q.286-.804.838-1.297a3.4 3.4 0 0 1 1.28-.724q.724-.23 1.522-.23.528 0 1.119.127.597.12 1.114.448.523.327.855.935.333.603.333 1.568v5.856h-1.676v-1.206h-.069q-.166.333-.499.655a2.7 2.7 0 0 1-.856.534q-.522.212-1.251.212m.373-1.378q.711 0 1.217-.281.511-.282.775-.735.27-.459.27-.982v-1.137q-.092.093-.356.173a6 6 0 0 1-.591.132q-.333.052-.649.097l-.528.069a4.2 4.2 0 0 0-.913.213 1.6 1.6 0 0 0-.655.43q-.241.276-.241.735 0 .638.471.965.471.321 1.2.321m9.98 1.361q-1.281 0-2.205-.58a3.84 3.84 0 0 1-1.412-1.613q-.495-1.028-.494-2.354 0-1.344.505-2.371a3.87 3.87 0 0 1 1.424-1.614q.919-.58 2.164-.58 1.005 0 1.792.374.786.367 1.268 1.033.489.666.58 1.556h-1.67a2 2 0 0 0-.632-1.068q-.488-.447-1.309-.448-.717 0-1.257.379-.534.374-.833 1.068-.298.689-.298 1.631 0 .964.292 1.665.293.7.827 1.085.54.384 1.269.384.488 0 .884-.178.402-.183.672-.522a2 2 0 0 0 .385-.815h1.67a3.25 3.25 0 0 1-.557 1.527 3.2 3.2 0 0 1-1.245 1.056q-.776.385-1.82.385m7.175-5.414v5.236h-1.717v-11.758h1.694v4.375h.109a2.53 2.53 0 0 1 .947-1.131q.637-.42 1.665-.42.907 0 1.585.374.683.373 1.056 1.113.38.735.379 1.838v5.609h-1.717v-5.403q0-.97-.499-1.504-.5-.54-1.389-.54-.61 0-1.091.259a1.86 1.86 0 0 0-.752.758q-.27.494-.27 1.194m9.14 5.345q-.471 0-.81-.333a1.12 1.12 0 0 1-.338-.815q0-.471.338-.804.339-.339.81-.339t.809.339q.339.333.339.804 0 .315-.161.58-.155.258-.413.413a1.1 1.1 0 0 1-.574.155m10.056-6.775-1.556.276a1.8 1.8 0 0 0-.31-.568 1.54 1.54 0 0 0-.563-.443q-.356-.171-.89-.172-.73 0-1.217.327-.488.322-.488.833 0 .442.327.712.328.27 1.057.442l1.401.321q1.217.282 1.814.867.597.586.597 1.522 0 .792-.459 1.412-.454.615-1.269.965-.81.35-1.878.35-1.48 0-2.417-.632-.935-.636-1.148-1.808l1.659-.253q.156.65.638.982.481.327 1.257.327.844 0 1.349-.35.505-.356.505-.867a.9.9 0 0 0-.31-.695q-.303-.281-.935-.424l-1.493-.328q-1.235-.281-1.826-.895-.586-.615-.586-1.556 0-.781.437-1.367.437-.585 1.205-.913.77-.333 1.763-.333 1.43 0 2.251.621.82.613 1.085 1.647m3.776 1.43v5.236h-1.717v-11.758h1.694v4.375h.109q.31-.713.947-1.131.637-.42 1.665-.42.907 0 1.585.374.684.373 1.056 1.113.38.735.379 1.838v5.609h-1.716v-5.403q0-.97-.5-1.504-.5-.54-1.389-.54-.608 0-1.091.259a1.86 1.86 0 0 0-.752.758q-.27.494-.27 1.194m10.576 5.431a3.6 3.6 0 0 1-1.516-.31 2.55 2.55 0 0 1-1.074-.913q-.39-.597-.39-1.464 0-.746.287-1.228.287-.483.775-.764a4 4 0 0 1 1.091-.425 11 11 0 0 1 1.228-.218l1.286-.149q.495-.063.718-.201.224-.138.224-.448v-.04q0-.752-.425-1.166-.419-.413-1.251-.413-.867 0-1.367.385-.494.378-.683.844l-1.613-.368q.286-.804.838-1.297a3.4 3.4 0 0 1 1.28-.724q.724-.23 1.522-.23.528 0 1.119.127.597.12 1.114.448.522.327.855.935.333.603.333 1.568v5.856h-1.676v-1.206h-.069q-.166.333-.499.655a2.7 2.7 0 0 1-.856.534q-.522.212-1.251.212m.373-1.378q.711 0 1.217-.281a2 2 0 0 0 .775-.735q.27-.459.27-.982v-1.137q-.092.093-.356.173-.259.074-.592.132-.333.052-.648.097l-.529.069a4.2 4.2 0 0 0-.912.213 1.6 1.6 0 0 0-.655.43q-.241.276-.241.735 0 .638.471.965.471.321 1.2.321m6.265 1.183v-8.819h1.659v1.401h.092a2.13 2.13 0 0 1 .85-1.119 2.43 2.43 0 0 1 1.389-.414 7 7 0 0 1 .729.04v1.642a3 3 0 0 0-.367-.063 4 4 0 0 0-.528-.04q-.609 0-1.086.258a1.93 1.93 0 0 0-1.021 1.729v5.385zm6.205 0v-8.819h1.648v1.436h.109q.275-.729.901-1.137.626-.414 1.498-.414.885 0 1.482.414.602.412.89 1.137h.091a2.5 2.5 0 0 1 1.005-1.126q.69-.425 1.642-.425 1.2 0 1.958.753.764.752.764 2.267v5.914h-1.717v-5.753q0-.895-.488-1.297a1.78 1.78 0 0 0-1.166-.402q-.837 0-1.303.516-.465.511-.465 1.315v5.621h-1.711v-5.862q0-.717-.448-1.154-.447-.436-1.165-.436-.488 0-.901.258a1.9 1.9 0 0 0-.661.706 2.2 2.2 0 0 0-.247 1.051v5.437zm16.855.195a3.6 3.6 0 0 1-1.516-.31 2.56 2.56 0 0 1-1.074-.913q-.39-.597-.39-1.464 0-.746.287-1.228.287-.483.775-.764a4 4 0 0 1 1.091-.425q.602-.144 1.229-.218l1.286-.149q.493-.063.717-.201t.224-.448v-.04q0-.752-.425-1.166-.418-.413-1.251-.413-.867 0-1.367.385-.494.378-.683.844l-1.613-.368q.287-.804.838-1.297a3.4 3.4 0 0 1 1.28-.724q.724-.23 1.522-.23.528 0 1.119.127.597.12 1.114.448.523.327.856.935.333.603.333 1.568v5.856h-1.677v-1.206h-.069q-.166.333-.499.655a2.7 2.7 0 0 1-.856.534q-.522.212-1.251.212m.373-1.378q.712 0 1.217-.281.511-.282.775-.735.27-.459.27-.982v-1.137q-.092.093-.356.173a6 6 0 0 1-.591.132q-.334.052-.649.097l-.528.069a4.2 4.2 0 0 0-.913.213 1.6 1.6 0 0 0-.655.43q-.24.276-.241.735 0 .638.471.965.471.321 1.2.321m13.344 4.381q-1.78 0-3.158-.488-1.372-.482-2.313-1.424-.942-.935-1.43-2.297-.488-1.36-.488-3.106 0-1.7.494-3.054.493-1.355 1.435-2.308a6.3 6.3 0 0 1 2.302-1.464q1.355-.505 3.078-.505 1.648 0 2.905.517 1.257.516 2.113 1.418a6 6 0 0 1 1.297 2.066q.436 1.165.436 2.464 0 .907-.114 1.774a5.7 5.7 0 0 1-.425 1.561 2.66 2.66 0 0 1-.884 1.114q-.575.413-1.493.431a3 3 0 0 1-.947-.115 1.9 1.9 0 0 1-.781-.425 1.25 1.25 0 0 1-.391-.758h-.069a1.74 1.74 0 0 1-.459.632 2.4 2.4 0 0 1-.821.459 3.2 3.2 0 0 1-1.148.138 3.1 3.1 0 0 1-1.303-.328 3 3 0 0 1-.994-.826 3.9 3.9 0 0 1-.625-1.252 5.5 5.5 0 0 1-.219-1.607q0-.85.247-1.522.248-.678.672-1.165.43-.495.988-.781a3.4 3.4 0 0 1 1.177-.362 3.5 3.5 0 0 1 1.108.035q.505.103.838.315.339.213.425.465h.074v-.643h1.413v5.328q0 .454.235.77.242.315.683.315.523 0 .816-.384.298-.385.419-1.183.126-.798.126-2.044 0-.873-.235-1.642a4.6 4.6 0 0 0-.684-1.401 4.4 4.4 0 0 0-1.102-1.085 5.2 5.2 0 0 0-1.493-.7 6.5 6.5 0 0 0-1.843-.247q-1.372 0-2.44.425a4.8 4.8 0 0 0-1.802 1.211 5.3 5.3 0 0 0-1.109 1.9q-.372 1.102-.373 2.475 0 1.43.385 2.538a4.9 4.9 0 0 0 1.137 1.86q.751.758 1.86 1.148 1.108.396 2.555.396.642 0 1.263-.115a10 10 0 0 0 1.102-.252q.488-.138.729-.224l.402 1.257q-.356.167-.947.327-.586.162-1.275.264a9 9 0 0 1-1.349.104m-.528-4.777q.745 0 1.2-.298.459-.299.66-.89.207-.597.207-1.493-.006-.873-.224-1.389-.213-.523-.666-.747-.448-.23-1.154-.23-.65 0-1.108.316a2 2 0 0 0-.695.856q-.235.54-.241 1.2.006.694.195 1.309.195.608.632.987.442.38 1.194.379m12.896 1.757q-1.303 0-2.245-.557a3.77 3.77 0 0 1-1.446-1.579q-.506-1.021-.506-2.394 0-1.355.506-2.388a3.93 3.93 0 0 1 1.423-1.614q.92-.58 2.148-.58.746 0 1.447.247.7.247 1.257.775.557.529.878 1.373.322.837.322 2.038v.608h-7.01v-1.286h5.328q0-.677-.276-1.2a2.1 2.1 0 0 0-.775-.832q-.494-.304-1.16-.304-.723 0-1.263.356a2.4 2.4 0 0 0-.827.918 2.66 2.66 0 0 0-.287 1.223v1.005q0 .884.31 1.504.317.62.879.947.562.322 1.315.322.487 0 .889-.138.402-.144.695-.425.293-.28.448-.695l1.625.293a2.94 2.94 0 0 1-.701 1.258 3.4 3.4 0 0 1-1.257.832q-.752.293-1.717.293m5.688-.178v-8.819h1.648v1.436h.109q.275-.729.902-1.137.625-.414 1.498-.414.885 0 1.481.414.603.412.89 1.137h.092a2.5 2.5 0 0 1 1.005-1.126q.689-.425 1.642-.425 1.2 0 1.958.753.763.752.763 2.267v5.914h-1.716v-5.753q0-.895-.488-1.297a1.78 1.78 0 0 0-1.166-.402q-.838 0-1.303.516-.465.511-.465 1.315v5.621h-1.711v-5.862q0-.717-.448-1.154-.447-.436-1.165-.436-.489 0-.902.258a1.9 1.9 0 0 0-.66.706 2.16 2.16 0 0 0-.247 1.051v5.437zm16.855.195a3.6 3.6 0 0 1-1.515-.31 2.55 2.55 0 0 1-1.074-.913q-.39-.597-.39-1.464 0-.746.287-1.228.287-.483.775-.764a4 4 0 0 1 1.091-.425 11 11 0 0 1 1.228-.218l1.286-.149q.495-.063.718-.201.224-.138.224-.448v-.04q0-.752-.425-1.166-.419-.413-1.252-.413-.866 0-1.366.385-.494.378-.683.844l-1.613-.368q.286-.804.838-1.297a3.4 3.4 0 0 1 1.28-.724 5 5 0 0 1 1.522-.23q.528 0 1.119.127.597.12 1.114.448.522.327.855.935.333.603.333 1.568v5.856h-1.676v-1.206h-.069q-.167.333-.5.655a2.7 2.7 0 0 1-.855.534q-.522.212-1.252.212m.374-1.378q.711 0 1.217-.281a2 2 0 0 0 .775-.735q.27-.459.27-.982v-1.137q-.093.093-.356.173-.26.074-.592.132-.333.052-.648.097l-.529.069a4.2 4.2 0 0 0-.912.213 1.6 1.6 0 0 0-.655.43q-.241.276-.241.735 0 .638.471.965.471.321 1.2.321m6.265 1.183v-8.819h1.716v8.819zm.867-10.179q-.448 0-.77-.299a.97.97 0 0 1-.315-.723.96.96 0 0 1 .315-.724q.322-.304.77-.304t.763.304a.95.95 0 0 1 .322.724.96.96 0 0 1-.322.723 1.07 1.07 0 0 1-.763.299m4.876-1.579v11.758h-1.717v-11.758zm2.125 11.758v-1.177l4.777-6.069v-.08h-4.622v-1.493h6.763v1.252l-4.593 5.994v.08h4.754v1.493zm10.236.109q-.471 0-.81-.333a1.1 1.1 0 0 1-.339-.815q0-.471.339-.804.339-.339.81-.339.47 0 .809.339.339.333.339.804 0 .315-.161.58-.155.258-.413.413a1.1 1.1 0 0 1-.574.155m7.162.069q-1.281 0-2.205-.58a3.84 3.84 0 0 1-1.412-1.613q-.494-1.028-.494-2.354 0-1.344.505-2.371a3.9 3.9 0 0 1 1.424-1.614q.918-.58 2.165-.58 1.003 0 1.791.374.786.367 1.269 1.033.487.666.58 1.556h-1.671a2 2 0 0 0-.632-1.068q-.487-.447-1.309-.448-.717 0-1.257.379-.534.374-.833 1.068-.298.689-.298 1.631 0 .964.293 1.665.292.7.826 1.085.54.384 1.269.384.488 0 .884-.178.402-.183.672-.522a2 2 0 0 0 .385-.815h1.671a3.26 3.26 0 0 1-.557 1.527q-.466.672-1.246 1.056-.776.385-1.82.385m9.173 0q-1.24 0-2.165-.568a3.84 3.84 0 0 1-1.435-1.591q-.511-1.022-.511-2.388 0-1.373.511-2.4a3.83 3.83 0 0 1 1.435-1.596q.925-.569 2.165-.569t2.164.569a3.83 3.83 0 0 1 1.436 1.596q.51 1.028.511 2.4 0 1.367-.511 2.388a3.84 3.84 0 0 1-1.436 1.591q-.924.567-2.164.568m.006-1.441q.803 0 1.332-.425.528-.424.78-1.131a4.5 4.5 0 0 0 .259-1.556q0-.844-.259-1.55a2.5 2.5 0 0 0-.78-1.143q-.529-.43-1.332-.43-.81 0-1.344.43a2.56 2.56 0 0 0-.786 1.143 4.6 4.6 0 0 0-.253 1.55q0 .85.253 1.556.258.707.786 1.131.534.425 1.344.425m6.021 1.263v-8.819h1.648v1.436h.109q.275-.729.901-1.137.626-.414 1.499-.414.884 0 1.481.414.603.412.89 1.137h.092q.315-.706 1.004-1.126.69-.425 1.642-.425 1.2 0 1.958.753.764.752.764 2.267v5.914h-1.717v-5.753q0-.895-.488-1.297a1.77 1.77 0 0 0-1.165-.402q-.839 0-1.304.516-.465.511-.465 1.315v5.621h-1.711v-5.862q0-.717-.448-1.154-.447-.436-1.165-.436-.488 0-.901.258a1.9 1.9 0 0 0-.661.706 2.2 2.2 0 0 0-.247 1.051v5.437z" fill="#B6BBC3"/>
    <path d="M572.42 123.107a1.437 1.437 0 1 0-2.871 0v4.792a1.436 1.436 0 1 0 2.871 0zm-1.435 25.39c4.228 0 7.655-3.433 7.655-7.667a7.6 7.6 0 0 0-.712-3.233c1.764.764 3.38 1.735 4.784 2.728a33 33 0 0 1 3.641 2.992c.429.407.76.744.981.976q.167.176.247.266l.059.065.013.014.001.002a1.434 1.434 0 0 0 2.025.134 1.44 1.44 0 0 0 .135-2.028l-1.08.946 1.08-.946-.004-.005-.006-.007-.022-.025-.079-.087a29 29 0 0 0-1.375-1.392 36 36 0 0 0-3.959-3.253c-3.216-2.275-7.758-4.656-12.885-4.798a8 8 0 0 0-1.027.002c-5.1.16-9.618 2.53-12.821 4.796a36 36 0 0 0-3.959 3.253 30 30 0 0 0-1.375 1.392l-.078.087-.022.025-.007.007-.002.003c-.001 0-.002.002 1.078.948l-1.08-.946a1.44 1.44 0 0 0 .135 2.028 1.434 1.434 0 0 0 2.025-.134l.002-.002.012-.014.059-.065q.081-.09.247-.266c.221-.232.552-.569.981-.976a33 33 0 0 1 3.641-2.992c1.392-.985 2.993-1.947 4.739-2.709a7.65 7.65 0 0 0-.703 3.214c0 4.234 3.428 7.667 7.656 7.667m.018-4.792a2.873 2.873 0 0 1-2.871-2.875 2.873 2.873 0 0 1 2.871-2.875 2.87 2.87 0 0 1 2.87 2.875 2.87 2.87 0 0 1-2.87 2.875m14.046-19.96c.71.354.999 1.216.646 1.927l-2.415 4.866c-.352.711-1.214 1-1.924.647a1.44 1.44 0 0 1-.646-1.927l2.415-4.865a1.435 1.435 0 0 1 1.924-.648m-29.219 1.927a1.435 1.435 0 1 1 2.57-1.279l2.415 4.865a1.44 1.44 0 0 1-.646 1.927 1.434 1.434 0 0 1-1.924-.647z" fill="#4A8AE6"/>
    <path d="M215 182.811v-1.452l4.276-6.756h1.211v2.066h-.738l-2.879 4.562v.079h5.969v1.501zm4.808 1.87v-2.313l.02-.649v-7.116h1.722v10.078zm5.721-1.211q-.448 0-.768-.314a1.03 1.03 0 0 1-.315-.768 1 1 0 0 1 .315-.758q.32-.315.768-.315.432 0 .753.315a1.036 1.036 0 0 1 .172 1.304q-.148.246-.394.394a1 1 0 0 1-.531.142m0-4.994q-.448 0-.768-.315a1.03 1.03 0 0 1-.315-.768 1 1 0 0 1 .315-.758q.32-.32.768-.32.432 0 .753.32.324.315.329.758a1.03 1.03 0 0 1-.157.541q-.148.246-.394.394a1 1 0 0 1-.531.148m2.902 6.205v-1.319l3.499-3.43q.501-.507.836-.9.336-.394.502-.763a1.9 1.9 0 0 0 .168-.788q0-.477-.217-.816a1.44 1.44 0 0 0-.595-.532 1.9 1.9 0 0 0-.861-.187q-.498 0-.872.207a1.4 1.4 0 0 0-.58.576 1.84 1.84 0 0 0-.202.89h-1.737q0-.96.438-1.668a2.96 2.96 0 0 1 1.206-1.097q.772-.39 1.771-.389 1.014 0 1.782.379.767.379 1.19 1.038.429.66.429 1.506 0 .566-.217 1.112-.216.546-.763 1.211-.541.664-1.52 1.609l-1.737 1.767v.069h4.389v1.525zm12.189.138q-1.097 0-1.948-.369-.847-.37-1.329-1.009a2.37 2.37 0 0 1-.472-1.462 2.4 2.4 0 0 1 .275-1.166q.28-.532.758-.886a2.44 2.44 0 0 1 1.073-.457v-.069a2.13 2.13 0 0 1-1.26-.793 2.28 2.28 0 0 1-.472-1.441 2.3 2.3 0 0 1 .433-1.388q.438-.61 1.2-.96.764-.354 1.742-.354.97 0 1.728.354.762.35 1.201.96.442.61.442 1.388 0 .816-.487 1.441a2.12 2.12 0 0 1-1.245.793v.069q.59.098 1.063.457.477.354.758.886.285.531.285 1.166 0 .817-.482 1.462-.482.64-1.329 1.009-.841.369-1.934.369m0-1.408q.567 0 .985-.192.418-.196.649-.551.231-.354.237-.817a1.53 1.53 0 0 0-.251-.851 1.66 1.66 0 0 0-.665-.586 2.1 2.1 0 0 0-.955-.211q-.54 0-.964.211a1.7 1.7 0 0 0-.669.586q-.242.37-.237.851-.004.463.227.817.232.35.649.547.424.196.994.196m0-4.591q.463 0 .817-.187a1.42 1.42 0 0 0 .778-1.294 1.43 1.43 0 0 0-.207-.758 1.33 1.33 0 0 0-.561-.507 1.8 1.8 0 0 0-.827-.182q-.477 0-.841.182-.36.177-.561.507a1.4 1.4 0 0 0-.192.758 1.43 1.43 0 0 0 .197.772q.207.33.566.522.365.187.831.187m8.899 5.861v-10.078h3.779q1.162 0 1.949.433.792.432 1.196 1.191.409.753.409 1.712 0 .97-.409 1.723a2.9 2.9 0 0 1-1.206 1.186q-.797.428-1.963.428h-2.505v-1.501h2.259q.679 0 1.112-.236.433-.237.64-.65.211-.414.211-.95t-.211-.945a1.44 1.44 0 0 0-.645-.635q-.433-.231-1.117-.231h-1.673v8.553zm8.918-10.078h2.235l2.992 7.303h.118l2.992-7.303h2.234v10.078h-1.752v-6.924h-.094l-2.785 6.895h-1.309l-2.785-6.91h-.094v6.939h-1.752z" fill="#B6BBC3"/>
    <rect x="215" y="236" width="86" height="6" rx="3" fill="#DADDE1"/>
    <rect x="215" y="256" width="403" height="6" rx="3" fill="#DADDE1"/>
    <rect x="215" y="276" width="355" height="6" rx="3" fill="#DADDE1"/>
    <rect x="215" y="296" width="372" height="6" rx="3" fill="#DADDE1"/>
    <rect x="215" y="316" width="248" height="6" rx="3" fill="#DADDE1"/>
    <rect x="215" y="441" width="58" height="6" rx="3" fill="#DADDE1"/>
    <rect x="215" y="356" width="93" height="6" rx="3" fill="#DADDE1"/>
    <rect x="316" y="356" width="93" height="6" rx="3" fill="#4A8AE6"/>
    <path fill="#262647" d="M359 370h178v48H359z"/>
    <path d="M378.066 382.749a.75.75 0 0 0-1.501 0v3.187a.75.75 0 0 0 1.501 0zm-5.933 1.529a.75.75 0 0 0-1.06 1.061l2.257 2.254a.751.751 0 0 0 1.06-1.062zm1.574 6.018a.75.75 0 0 1-.75.749h-3.206a.75.75 0 1 1 0-1.499h3.206a.75.75 0 0 1 .75.75m6.984 15.013-5.053-15.493a1 1 0 0 1 1.261-1.261l15.411 5.028c.92.301.919 1.603-.001 1.902l-7.22 2.347-2.499 7.484c-.305.914-1.6.909-1.899-.007m32.414-19.897a1.25 1.25 0 0 0-.562-.938q-.495-.336-1.245-.336-.537 0-.929.17a1.43 1.43 0 0 0-.609.46 1.1 1.1 0 0 0-.213.661q0 .31.145.537.148.226.388.379.242.15.519.252.278.098.533.162l.852.221q.418.102.857.277.44.175.814.46a2.2 2.2 0 0 1 .605.708q.234.422.234 1.01 0 .741-.383 1.316-.38.576-1.104.908-.72.332-1.743.332-.98 0-1.696-.311-.716-.31-1.121-.882-.404-.575-.447-1.363h1.321q.039.473.307.788.273.31.694.465.427.149.934.149.558 0 .993-.175.438-.179.69-.494a1.17 1.17 0 0 0 .251-.746.92.92 0 0 0-.221-.635 1.64 1.64 0 0 0-.593-.409 6 6 0 0 0-.839-.286l-1.031-.281q-1.048-.285-1.662-.839-.61-.554-.61-1.466 0-.754.409-1.317a2.7 2.7 0 0 1 1.108-.874q.7-.315 1.577-.315.886 0 1.564.311.682.31 1.074.857.392.54.409 1.244zm5.682 6.567q-.968 0-1.667-.414a2.8 2.8 0 0 1-1.073-1.172q-.375-.758-.375-1.777 0-1.005.375-1.772a2.9 2.9 0 0 1 1.056-1.198q.682-.43 1.594-.43.553 0 1.074.183.52.183.933.575a2.7 2.7 0 0 1 .652 1.019q.239.622.239 1.513v.451h-5.203v-.954h3.954q0-.502-.204-.891a1.55 1.55 0 0 0-1.436-.844q-.537 0-.938.265-.396.26-.614.681a2 2 0 0 0-.213.908v.746q0 .656.231 1.116.234.46.652.704.417.238.975.238.363 0 .661-.102.299-.107.515-.315.217-.21.333-.516l1.206.217q-.145.532-.52.933a2.5 2.5 0 0 1-.933.618 3.5 3.5 0 0 1-1.274.218m4.222 2.322v-9h1.244v1.061h.106q.111-.204.32-.473.208-.268.58-.469.37-.204.98-.204.792 0 1.414.4.622.401.976 1.155.358.754.358 1.816 0 1.061-.353 1.819-.354.755-.972 1.164a2.5 2.5 0 0 1-1.411.404q-.596 0-.975-.2a1.8 1.8 0 0 1-.588-.469 3.5 3.5 0 0 1-.329-.477h-.076v3.473zm1.248-5.727q0 .69.2 1.21t.58.814q.379.29.929.29.572 0 .954-.303.384-.306.58-.831.2-.524.2-1.18 0-.648-.196-1.163a1.8 1.8 0 0 0-.579-.814q-.384-.299-.959-.299-.554 0-.938.286-.378.285-.575.797-.196.511-.196 1.193m9.213-3.273v1.023h-3.575v-1.023zm-2.616-1.568h1.274v6.192q0 .37.111.558a.57.57 0 0 0 .285.251q.179.064.388.064.153 0 .268-.021l.179-.034.23 1.052a2.5 2.5 0 0 1-.826.137 2.2 2.2 0 0 1-.938-.179 1.6 1.6 0 0 1-.703-.58q-.268-.392-.268-.984zm6.776 8.246q-.967 0-1.666-.414a2.8 2.8 0 0 1-1.074-1.172q-.375-.758-.375-1.777 0-1.005.375-1.772a2.9 2.9 0 0 1 1.057-1.198q.682-.43 1.594-.43.553 0 1.074.183.519.183.933.575a2.7 2.7 0 0 1 .652 1.019q.239.622.239 1.513v.451h-5.204v-.954h3.955q0-.502-.205-.891a1.55 1.55 0 0 0-1.436-.844q-.537 0-.937.265-.396.26-.614.681a2 2 0 0 0-.213.908v.746q0 .656.23 1.116.235.46.652.704.418.238.976.238.363 0 .661-.102.297-.107.515-.315.217-.21.333-.516l1.206.217q-.145.532-.52.933a2.5 2.5 0 0 1-.934.618 3.5 3.5 0 0 1-1.274.218m4.222-.132v-6.546h1.223v1.065h.081q.205-.54.669-.843.465-.307 1.113-.307.655 0 1.099.307a1.8 1.8 0 0 1 .66.843h.069q.234-.523.745-.835.512-.315 1.219-.315.89 0 1.453.558.567.558.567 1.683v4.39h-1.274v-4.27q0-.665-.362-.963a1.32 1.32 0 0 0-.865-.299q-.623 0-.968.384-.345.38-.345.976v4.172h-1.27v-4.351q0-.533-.332-.857-.333-.324-.865-.324-.363 0-.669.192-.303.188-.49.524a1.6 1.6 0 0 0-.184.78v4.036zm10.708 0v-8.728h1.274v3.243h.077q.11-.204.319-.473.21-.268.58-.469.37-.204.98-.204.793 0 1.415.4.622.401.976 1.155.358.754.358 1.816 0 1.061-.354 1.819-.354.755-.972 1.164a2.5 2.5 0 0 1-1.41.404q-.597 0-.976-.2a1.8 1.8 0 0 1-.588-.469 3.6 3.6 0 0 1-.328-.477h-.107v1.019zm1.249-3.273q0 .69.2 1.21t.579.814q.38.29.929.29.571 0 .955-.303.384-.306.579-.831.201-.524.201-1.18 0-.648-.196-1.163a1.77 1.77 0 0 0-.58-.814q-.383-.299-.959-.299-.553 0-.937.286-.38.285-.575.797-.196.511-.196 1.193m8.981 3.405q-.966 0-1.666-.414a2.8 2.8 0 0 1-1.074-1.172q-.375-.758-.375-1.777 0-1.005.375-1.772a2.9 2.9 0 0 1 1.057-1.198q.682-.43 1.594-.43.553 0 1.074.183.52.183.933.575a2.7 2.7 0 0 1 .652 1.019q.239.622.239 1.513v.451h-5.203v-.954h3.954q0-.502-.204-.891a1.56 1.56 0 0 0-.576-.618 1.6 1.6 0 0 0-.86-.226q-.537 0-.938.265-.396.26-.614.681a2 2 0 0 0-.213.908v.746q0 .656.23 1.116.235.46.652.704.418.238.976.238.363 0 .661-.102.299-.107.515-.315.217-.21.333-.516l1.206.217q-.145.532-.52.933a2.5 2.5 0 0 1-.933.618 3.5 3.5 0 0 1-1.275.218m4.222-.132v-6.546h1.232v1.04h.068q.179-.528.631-.831a1.8 1.8 0 0 1 1.031-.307 5 5 0 0 1 .541.03v1.219a2 2 0 0 0-.272-.047 3 3 0 0 0-.393-.03 1.66 1.66 0 0 0-.805.192 1.42 1.42 0 0 0-.758 1.282v3.998zm10.713.119q-.915 0-1.619-.315-.699-.316-1.095-.87a2.1 2.1 0 0 1-.392-1.261 2.22 2.22 0 0 1 .861-1.798 1.96 1.96 0 0 1 .895-.401v-.051a1.76 1.76 0 0 1-1.044-.699 2.04 2.04 0 0 1-.388-1.244 2.04 2.04 0 0 1 .354-1.193q.362-.53.992-.831a3.3 3.3 0 0 1 1.436-.303 3.2 3.2 0 0 1 1.424.307q.63.303.993.831.361.524.366 1.189a2.08 2.08 0 0 1-.4 1.244 1.78 1.78 0 0 1-1.032.699v.051a1.9 1.9 0 0 1 .882.401q.397.31.631.779.238.465.243 1.019a2.13 2.13 0 0 1-.401 1.261q-.396.554-1.099.87-.698.315-1.607.315m0-1.078q.542 0 .938-.179.396-.183.614-.507.217-.329.221-.767a1.44 1.44 0 0 0-.238-.806 1.6 1.6 0 0 0-.627-.549 2 2 0 0 0-.908-.201q-.515 0-.916.201a1.6 1.6 0 0 0-.63.549 1.4 1.4 0 0 0-.226.806q-.004.438.209.767.216.324.617.507.402.179.946.179m0-4.061q.435 0 .772-.175.336-.174.528-.486.197-.31.2-.728a1.34 1.34 0 0 0-.196-.716 1.23 1.23 0 0 0-.524-.473 1.7 1.7 0 0 0-.78-.171q-.452 0-.792.171-.337.165-.524.473a1.3 1.3 0 0 0-.184.716q-.004.417.188.728.192.312.528.486.342.174.784.175m6.051 3.826-.064.465a7.4 7.4 0 0 1-.218 1.065q-.149.558-.311 1.036-.158.477-.26.758h-.903l.153-.716q.099-.447.192-1.001.094-.554.141-1.129l.042-.478zm4.817 1.194v-.955l2.953-3.06q.473-.498.78-.873.31-.38.464-.72.154-.341.154-.725 0-.435-.205-.75a1.34 1.34 0 0 0-.558-.49 1.8 1.8 0 0 0-.797-.175q-.468 0-.818.192a1.3 1.3 0 0 0-.537.541 1.7 1.7 0 0 0-.187.819h-1.257q0-.798.366-1.394a2.5 2.5 0 0 1 1.006-.925q.639-.332 1.453-.332.822 0 1.449.328.63.324.984.886.354.559.354 1.262 0 .486-.184.95-.179.465-.626 1.036-.447.566-1.244 1.376l-1.735 1.815v.064h3.929v1.13zm10.398.144q-1.01-.004-1.726-.532-.715-.528-1.095-1.539t-.38-2.433q0-1.419.38-2.425.383-1.005 1.099-1.534.72-.528 1.722-.528 1.001 0 1.717.533.715.528 1.095 1.534.384 1 .384 2.42 0 1.428-.379 2.438-.38 1.005-1.096 1.538-.716.528-1.721.528m0-1.137q.886 0 1.385-.865.503-.866.503-2.502 0-1.086-.231-1.836-.225-.755-.652-1.142a1.42 1.42 0 0 0-1.005-.393q-.882 0-1.385.87-.502.869-.507 2.501 0 1.091.226 1.845.23.75.652 1.138.422.384 1.014.384m4.708.993v-.955l2.953-3.06q.473-.498.779-.873.312-.38.465-.72.153-.341.153-.725 0-.435-.204-.75a1.35 1.35 0 0 0-.558-.49 1.8 1.8 0 0 0-.797-.175q-.47 0-.818.192a1.3 1.3 0 0 0-.537.541 1.7 1.7 0 0 0-.188.819h-1.257q0-.798.366-1.394.367-.597 1.006-.925a3.1 3.1 0 0 1 1.453-.332q.823 0 1.449.328.631.324.985.886.353.559.353 1.262 0 .486-.183.95-.179.465-.626 1.036-.448.566-1.245 1.376l-1.734 1.815v.064h3.929v1.13zm10.67-8.728v8.728h-1.321v-7.407h-.051l-2.088 1.364v-1.261l2.177-1.424zm-75.981 21.023v-1.065l3.772-5.958h.839v1.569h-.533l-2.697 4.269v.069h5.169v1.116zm4.138 1.705v-2.029l.009-.486v-6.213h1.248v8.728zm4.754-1.083a.83.83 0 0 1-.601-.247.82.82 0 0 1-.252-.605q0-.35.252-.597a.82.82 0 0 1 .601-.251q.35 0 .601.251a.8.8 0 0 1 .251.597q0 .234-.119.43a.9.9 0 0 1-.307.307.8.8 0 0 1-.426.115m0-4.372a.83.83 0 0 1-.601-.247.82.82 0 0 1-.252-.605q0-.35.252-.597a.82.82 0 0 1 .601-.251q.35 0 .601.251a.8.8 0 0 1 .251.597q0 .234-.119.43a.9.9 0 0 1-.307.307.8.8 0 0 1-.426.115m2.542 5.455v-.955l2.953-3.06q.473-.498.78-.873.31-.38.464-.72.153-.341.153-.725 0-.435-.204-.75a1.35 1.35 0 0 0-.558-.49 1.8 1.8 0 0 0-.797-.175 1.7 1.7 0 0 0-.818.192 1.3 1.3 0 0 0-.537.541 1.7 1.7 0 0 0-.188.819h-1.257q0-.798.367-1.394a2.5 2.5 0 0 1 1.005-.925 3.1 3.1 0 0 1 1.453-.332q.823 0 1.449.328.631.324.985.886.353.559.353 1.262 0 .486-.183.95-.179.465-.626 1.036-.448.566-1.245 1.376l-1.734 1.815v.064h3.929v1.13zm10.308.119q-.917 0-1.62-.315-.697-.316-1.095-.87a2.1 2.1 0 0 1-.392-1.261 2.23 2.23 0 0 1 .861-1.798 1.96 1.96 0 0 1 .895-.401v-.051a1.76 1.76 0 0 1-1.044-.699 2.05 2.05 0 0 1-.388-1.244 2.04 2.04 0 0 1 .354-1.193 2.45 2.45 0 0 1 .993-.831q.63-.303 1.436-.303.796 0 1.423.307.631.303.993.831.362.524.366 1.189a2.07 2.07 0 0 1-.4 1.244 1.77 1.77 0 0 1-1.031.699v.051q.489.085.882.401.396.31.63.779.24.465.243 1.019a2.14 2.14 0 0 1-.4 1.261q-.396.554-1.1.87-.699.315-1.606.315m0-1.078q.541 0 .937-.179.397-.183.614-.507.217-.329.222-.767a1.44 1.44 0 0 0-.239-.806 1.6 1.6 0 0 0-.627-.549 2 2 0 0 0-.907-.201q-.516 0-.916.201a1.6 1.6 0 0 0-.631.549 1.4 1.4 0 0 0-.226.806q-.004.438.209.767.217.324.618.507.4.179.946.179m0-4.061q.435 0 .771-.175.337-.174.529-.486.195-.31.2-.728a1.35 1.35 0 0 0-.196-.716 1.24 1.24 0 0 0-.524-.473 1.7 1.7 0 0 0-.78-.171q-.452 0-.793.171a1.24 1.24 0 0 0-.524.473 1.3 1.3 0 0 0-.183.716q-.005.417.187.728.192.312.529.486.34.174.784.175m7.928 5.02v-8.728h3.111q1.018 0 1.687.371.669.37 1.002 1.014.332.64.332 1.441a3.1 3.1 0 0 1-.336 1.448 2.44 2.44 0 0 1-1.006 1.015q-.669.37-1.683.37h-2.14v-1.116h2.02q.643 0 1.044-.222a1.4 1.4 0 0 0 .588-.613q.188-.388.188-.882 0-.495-.188-.878a1.34 1.34 0 0 0-.592-.601q-.4-.217-1.057-.217h-1.653v7.598zm7.676-8.728h1.598l2.778 6.784h.103l2.778-6.784h1.598v8.728h-1.253v-6.316h-.081l-2.574 6.303h-1.039l-2.574-6.307h-.081v6.32h-1.253z" fill="#fff"/>
    <circle cx="422" cy="349" r="7" fill="#4A8AE6"/>
    <rect x="177" y="-23" width="500" height="66" rx="10" fill="#fff"/>
    <rect x="30" y="113" width="114" height="114" rx="57" fill="#017737"/>
    <path d="M62.868 196.066h47.788a6.516 6.516 0 0 0 6.516-6.517V150.45a6.516 6.516 0 0 0-6.516-6.516H62.868a6.516 6.516 0 0 0-6.516 6.516v39.099a6.517 6.517 0 0 0 6.516 6.517" fill="#fff"/>
    <path d="m63.953 151.535 22.808 21.722 22.808-21.722m-45.616 36.928 13.033-13.033m19.554-.002 13.032 13.033" stroke="#017737" stroke-width="2" stroke-linecap="round" stroke-linejoin="round"/>
  </g>
  <defs>
    <clipPath id="a">
      <path fill="#fff" d="M0 0h720v460H0z"/>
    </clipPath>
  </defs>
</svg>
