<svg xmlns="http://www.w3.org/2000/svg" width="720" height="400" viewBox="0 0 720 400" fill="none">
  <g clip-path="url(#a)">
    <path fill="#CFD0F9" d="M0 0h720v400H0z"/>
    <path d="M67 113h913v507.411a5.59 5.59 0 0 1-5.589 5.589H72.589A5.59 5.59 0 0 1 67 620.411z" fill="#fff"/>
    <path fill="#EDEEF0" d="M98 118h651v2H98z"/>
    <path d="M80 76.59A5.59 5.59 0 0 1 85.59 71h902.056a5.59 5.59 0 0 1 5.589 5.59V117H80z" fill="#fff"/>
    <rect x="379.583" y="80.583" width="250.833" height="26.833" rx="13.417" fill="#fff"/>
    <path d="M396.88 92.972a4.908 4.908 0 1 0-9.817 0 4.908 4.908 0 0 0 9.817 0m-1.082 4.57a5.96 5.96 0 1 1 .744-.744l3.339 3.339a.525.525 0 1 1-.743.744z" fill="#656E7A"/>
    <rect x="379.583" y="80.583" width="250.833" height="26.833" rx="13.417" stroke="#C8CCD2" stroke-width="1.167"/>
    <rect x="640.917" y="80.618" width="26.833" height="26.833" rx="13.417" fill="#fff"/>
    <path d="M654.4 89.178c.291 0 .527.236.527.527v3.868h3.868a.528.528 0 1 1 0 1.055h-3.868v3.869a.527.527 0 1 1-1.055 0v-3.869h-3.868a.527.527 0 0 1 0-1.055h3.868v-3.868c0-.291.236-.527.528-.527" fill="#192435"/>
    <rect x="640.917" y="80.618" width="26.833" height="26.833" rx="13.417" stroke="#C8CCD2" stroke-width="1.167"/>
    <path d="M67 81c0-5.523 4.477-10 10-10h35v632.812H67z" fill="#1B1A40"/>
    <path d="M97.656 90.374c0 3.99-2.557 6.719-6.213 6.719-1.738 0-3.17-.722-3.707-1.623l.025.927v5.714H84.03V87.336c0-.205-.05-.258-.281-.258h-1.28v-3.14h3.12c1.432 0 1.79 1.236 1.892 1.777.563-.952 2.045-2.059 4.142-2.059 3.605 0 6.034 2.701 6.034 6.718m-3.81.025c0-2.136-1.38-3.603-3.12-3.603-1.43 0-3.042.952-3.042 3.63 0 1.75.971 3.578 2.992 3.578 1.483-.001 3.17-1.083 3.17-3.605" fill="#fff"/>
    <circle cx="90" cy="138" r="10" fill="#51516C"/>
    <rect x="69.813" y="163.812" width="39.374" height="39.374" rx="3.58" fill="#413D99"/>
    <path d="M89.25 173.875a9.375 9.375 0 1 0 0 18.749 9.375 9.375 0 0 0 0-18.749m-.678 14.999v-.979c-.63-.092-1.119-.292-1.495-.54a2.8 2.8 0 0 1-.861-.882.704.704 0 0 1 1.193-.744c.07.113.196.29.44.451.241.158.638.327 1.29.359l.115-.002c1.154-.033 1.73-.723 1.73-1.297a.8.8 0 0 0-.088-.401c-.059-.104-.165-.229-.377-.395-.338-.263-.591-.344-1.144-.521l-.267-.086a5 5 0 0 0-.345-.096l-.087-.022a5 5 0 0 1-.57-.175 5 5 0 0 1-.655-.321 5 5 0 0 1-.36-.222c-.308-.24-.564-.512-.739-.85a2.3 2.3 0 0 1-.243-1.078c0-1.365 1.107-2.33 2.438-2.616v-.832a.703.703 0 1 1 1.406 0v.796c.617.094 1.098.293 1.47.537.472.311.728.669.86.882a.704.704 0 0 1-1.193.744 1.4 1.4 0 0 0-.44-.451c-.24-.158-.638-.327-1.29-.359l-.072.002-.028.001c-1.147.044-1.745.745-1.745 1.296 0 .204.035.332.087.433s.145.219.328.366l.038.024c.044.026.106.064.179.105.152.087.326.177.468.232.124.048.253.084.409.124l.071.018c.134.034.293.074.449.125l.247.079c.548.173 1.045.33 1.592.756.295.23.557.491.74.818.188.337.267.698.267 1.087 0 1.36-1.074 2.341-2.412 2.622v1.012a.703.703 0 1 1-1.406 0" fill="#fff"/>
    <circle cx="90" cy="228" r="10" fill="#51516C"/>
    <circle cx="90" cy="273" r="10" fill="#51516C"/>
    <rect x="76.844" y="302.328" width="25.313" height="1.406" rx=".703" fill="#413D99"/>
    <circle cx="90" cy="332" r="10" fill="#51516C"/>
    <circle cx="90" cy="377" r="10" fill="#51516C"/>
    <rect x="127" y="135" width="236" height="400" rx="4" fill="#EDEEF0"/>
    <rect x="373" y="135" width="236" height="400" rx="4" fill="#EDEEF0"/>
    <path d="M149 159.236a2.236 2.236 0 0 1 2.236-2.236h188.086c.998 0 1.876.662 2.15 1.622l9.353 32.764c.114.401.114.827 0 1.228l-9.353 32.764a2.236 2.236 0 0 1-2.15 1.622H151.236a2.236 2.236 0 0 1-2.236-2.236z" fill="#fff"/>
    <rect x="619" y="135" width="236" height="400" rx="4" fill="#EDEEF0"/>
    <rect x="149" y="237" width="192" height="70" rx="2.236" fill="#fff"/>
    <path d="M149 159.236a2.236 2.236 0 0 1 2.236-2.236h188.086c.998 0 1.876.662 2.15 1.622l9.353 32.764c.114.401.114.827 0 1.228l-9.353 32.764a2.236 2.236 0 0 1-2.15 1.622H151.236a2.236 2.236 0 0 1-2.236-2.236z" fill="#fff"/>
    <path d="M396 159.236a2.236 2.236 0 0 1 2.236-2.236h188.086c.998 0 1.876.662 2.15 1.622l9.353 32.764c.114.401.114.827 0 1.228l-9.353 32.764a2.236 2.236 0 0 1-2.15 1.622H398.236a2.236 2.236 0 0 1-2.236-2.236z" fill="#1F9A4A"/>
    <path d="M475 192.004h32M491.002 208v-32" stroke="#fff" stroke-width="2" stroke-linecap="round"/>
    <rect x="149" y="317" width="192" height="70" rx="2.236" fill="#fff"/>
  </g>
  <defs>
    <clipPath id="a">
      <path fill="#fff" d="M0 0h720v400H0z"/>
    </clipPath>
  </defs>
</svg>
