<svg xmlns="http://www.w3.org/2000/svg" xmlns:xlink="http://www.w3.org/1999/xlink" width="400" zoomAndPan="magnify" viewBox="0 0 300 299.999988" height="400" preserveAspectRatio="xMidYMid meet" version="1.0"><defs><clipPath id="881c5ca99c"><path d="M 82.351562 67.433594 L 269.851562 67.433594 L 269.851562 232.433594 L 82.351562 232.433594 Z M 82.351562 67.433594 " clip-rule="nonzero"/></clipPath><clipPath id="c338ebf9aa"><path d="M 77.816406 119.765625 L 156.417969 119.765625 L 156.417969 200.558594 L 77.816406 200.558594 Z M 77.816406 119.765625 " clip-rule="nonzero"/></clipPath><clipPath id="640d45cf24"><path d="M 108 128 L 152.980469 128 L 152.980469 196 L 108 196 Z M 108 128 " clip-rule="nonzero"/></clipPath><clipPath id="98e514dca6"><path d="M 33 109 L 152.980469 109 L 152.980469 209 L 33 209 Z M 33 109 " clip-rule="nonzero"/></clipPath><clipPath id="9378f81cf8"><path d="M 19.480469 146 L 64 146 L 64 161 L 19.480469 161 Z M 19.480469 146 " clip-rule="nonzero"/></clipPath></defs><g clip-path="url(#881c5ca99c)"><path fill="#2c3e50" d="M 153.21875 179.390625 C 154.976562 179.390625 156.140625 180.554688 156.140625 182.316406 C 156.140625 184.074219 154.976562 185.238281 153.21875 185.238281 L 102.640625 185.238281 C 100.882812 185.238281 99.71875 184.074219 99.71875 182.316406 C 99.71875 180.554688 100.882812 179.390625 102.640625 179.390625 Z M 85.695312 154.839844 L 136.273438 154.839844 C 138.03125 154.839844 139.199219 156.003906 139.199219 157.765625 C 139.199219 159.425781 138.160156 160.554688 136.5625 160.675781 L 136.273438 160.6875 L 85.695312 160.6875 C 83.9375 160.6875 82.773438 159.523438 82.773438 157.765625 C 82.773438 156.101562 83.8125 154.972656 85.410156 154.851562 L 85.695312 154.839844 L 136.273438 154.839844 Z M 102.640625 130.289062 L 153.21875 130.289062 C 154.976562 130.289062 156.140625 131.453125 156.140625 133.214844 C 156.140625 134.875 155.101562 136.003906 153.503906 136.125 L 153.21875 136.136719 L 102.640625 136.136719 C 100.894531 136.136719 99.71875 134.960938 99.71875 133.214844 C 99.71875 131.550781 100.757812 130.421875 102.351562 130.300781 L 102.640625 130.289062 L 153.21875 130.289062 Z M 261.640625 125.78125 C 266.738281 135.742188 269.570312 147.023438 269.570312 158.929688 C 269.570312 199.570312 236.535156 232.605469 195.890625 232.582031 C 176.308594 232.582031 157.886719 224.988281 143.851562 210.953125 C 142.6875 209.789062 142.6875 208.03125 143.851562 206.867188 C 145.019531 205.703125 146.777344 205.703125 147.941406 206.867188 C 160.796875 219.738281 177.757812 226.746094 195.878906 226.746094 C 233.300781 226.746094 263.699219 196.351562 263.699219 158.929688 C 263.699219 148.71875 261.40625 139.003906 257.304688 130.296875 Z M 252.675781 135.117188 C 255.832031 142.515625 257.578125 150.660156 257.578125 159.210938 C 257.578125 193.128906 230.105469 220.605469 196.1875 220.605469 C 183.628906 220.605469 171.636719 216.800781 161.40625 209.789062 C 159.945312 208.921875 159.648438 207.164062 160.527344 205.703125 C 161.40625 204.535156 163.164062 204.238281 164.910156 205.097656 C 173.964844 211.523438 184.792969 214.746094 196.1875 214.746094 C 226.882812 214.746094 251.734375 189.898438 251.734375 159.199219 C 251.734375 152.355469 250.496094 145.796875 248.234375 139.742188 Z M 251.910156 109.585938 C 254.515625 109.226562 257.058594 110.582031 258.207031 112.941406 C 259.363281 115.3125 258.867188 118.144531 256.980469 119.976562 C 235.476562 141.527344 219.9375 159.007812 198.179688 180.804688 C 195.953125 183.0625 192.367188 183.226562 189.941406 181.183594 L 163.585938 158.878906 C 162.339844 157.84375 161.566406 156.355469 161.429688 154.738281 C 161.289062 153.121094 161.792969 151.523438 162.839844 150.285156 C 163.886719 149.042969 165.382812 148.273438 166.992188 148.140625 C 168.605469 148.003906 170.207031 148.519531 171.441406 149.566406 L 193.492188 168.195312 C 212.863281 148.558594 228.0625 131.769531 248.363281 111.421875 C 249.304688 110.433594 250.554688 109.78125 251.910156 109.585938 Z M 196.1875 97.820312 C 211.675781 97.820312 225.824219 103.550781 236.621094 113.007812 L 232.582031 117.226562 C 222.839844 108.769531 210.117188 103.65625 196.1875 103.65625 C 184.496094 103.65625 173.085938 107.175781 163.734375 114.1875 C 162.273438 115.066406 160.523438 114.769531 159.644531 113.601562 C 158.765625 112.4375 159.0625 110.394531 160.226562 109.515625 C 170.757812 101.910156 183.332031 97.820312 196.1875 97.820312 Z M 209.34375 67.433594 C 211.105469 67.433594 212.269531 68.597656 212.269531 70.359375 C 212.269531 72.019531 211.230469 73.148438 209.632812 73.269531 L 209.34375 73.28125 L 198.816406 73.28125 L 198.816406 85.558594 C 216 86.128906 231.503906 92.59375 243.671875 103.023438 L 244.425781 103.679688 L 245 104.253906 L 240.921875 108.515625 C 228.820312 97.875 213.03125 91.390625 195.878906 91.390625 C 177.175781 91.390625 159.636719 98.996094 146.480469 112.734375 C 145.316406 113.902344 143.558594 113.902344 142.390625 112.734375 C 141.226562 111.570312 141.226562 109.8125 142.390625 108.648438 C 155.601562 94.589844 173.023438 86.726562 191.917969 85.613281 L 192.96875 85.558594 L 192.96875 73.28125 L 182.738281 73.28125 C 180.980469 73.28125 179.8125 72.117188 179.8125 70.359375 C 179.8125 68.695312 180.851562 67.566406 182.449219 67.445312 L 182.738281 67.433594 Z M 209.34375 67.433594 " fill-opacity="1" fill-rule="evenodd"/></g><g clip-path="url(#640d45cf24)"><path fill="#ff3131" d="M 148.328125 130.503906 C 149.847656 132.882812 151.125 135.160156 152.265625 137.878906 C 138.796875 131.882812 125.59375 140.433594 123.3125 145.847656 C 123.914062 145.566406 134.261719 140.894531 146.769531 152.859375 C 125.292969 155.359375 127.289062 164.847656 116.300781 167.847656 C 124.433594 174.578125 131.785156 168.703125 138.277344 172.199219 C 149.765625 178.695312 144.152344 187.183594 131.285156 184.328125 C 136.339844 190.761719 143.53125 192.980469 151.265625 191.320312 C 151.304688 192.058594 151.285156 192.777344 151.226562 193.480469 L 151.226562 193.5 C 147.75 196.253906 142.554688 196.15625 138.019531 194.515625 C 134.84375 193.519531 132.027344 190.679688 130.027344 188.183594 C 128.332031 186.226562 126.992188 182.929688 124.691406 181.46875 C 124.855469 181.371094 125.015625 181.269531 125.191406 181.191406 C 128.03125 179.371094 135.023438 181.691406 137.019531 178.695312 C 140.335938 174.039062 129.1875 176.875 127.851562 176.875 C 123.695312 176.695312 119.539062 175.039062 116.703125 172.039062 C 114.785156 170.125 111.847656 164.089844 108.789062 163.03125 C 111.367188 161.511719 113.546875 159.933594 116.363281 158.894531 C 119.898438 157.574219 122.914062 155.597656 124.835938 152.382812 C 121.957031 151.882812 119.777344 150.34375 117.140625 149.027344 C 121.777344 144.570312 124.273438 137.894531 129.027344 133.582031 C 135.28125 128.125 141.855469 127.667969 148.328125 130.503906 " fill-opacity="1" fill-rule="nonzero"/></g><path fill="#ff7c5b" d="M 149.148438 128.90625 C 148.488281 128.84375 147.867188 128.84375 147.269531 128.886719 C 147.628906 129.425781 147.988281 129.964844 148.328125 130.503906 C 141.855469 127.667969 135.28125 128.125 129.027344 133.582031 C 124.273438 137.894531 121.777344 144.570312 117.140625 149.027344 C 119.777344 150.34375 121.957031 151.882812 124.835938 152.382812 C 122.914062 155.597656 119.898438 157.574219 116.363281 158.894531 C 113.546875 159.933594 111.367188 161.511719 108.789062 163.03125 C 111.847656 164.089844 114.785156 170.121094 116.703125 172.039062 C 119.539062 175.035156 123.695312 176.695312 127.851562 176.875 C 129.1875 176.875 140.335938 174.039062 137.019531 178.691406 C 135.023438 181.691406 128.03125 179.371094 125.191406 181.191406 C 125.015625 181.269531 124.855469 181.371094 124.691406 181.46875 C 126.992188 182.929688 128.332031 186.222656 130.027344 188.183594 C 132.027344 190.679688 134.84375 193.519531 138.019531 194.515625 C 142.554688 196.15625 147.75 196.253906 151.226562 193.5 C 151.144531 194.554688 150.925781 195.574219 150.625 196.554688 C 146.132812 200.390625 140.457031 203.105469 135.34375 204.347656 C 132.027344 205.003906 128.351562 205.164062 125.03125 205.003906 C 121.695312 204.664062 119.359375 203.007812 116.203125 202.167969 C 119.699219 202.347656 124.195312 200.511719 126.191406 197.355469 C 131.347656 188.863281 117.203125 181.03125 110.367188 180.871094 C 101.878906 180.691406 92.046875 188.402344 85.734375 185.527344 C 89.570312 185.867188 93.066406 178.375 96.222656 176.695312 C 99.042969 175.296875 101.359375 173.957031 103.976562 173.199219 C 101.21875 168.882812 97.242188 165.328125 92.226562 163.890625 C 85.234375 161.710938 77.242188 168.925781 72.25 165.386719 C 77.402344 164.707031 80.398438 158.714844 85.234375 157.054688 C 90.449219 155.359375 96.820312 155.65625 101.835938 158.074219 C 101.335938 149.902344 96.164062 140.714844 88.730469 136.917969 C 95.304688 132.421875 103.214844 140.074219 110.367188 139.734375 C 117.859375 139.414062 127.691406 132.921875 123.355469 124.25 C 121.855469 121.433594 118.859375 120.09375 116.203125 119.097656 C 129.429688 114.800781 140.257812 119.15625 149.148438 128.90625 " fill-opacity="1" fill-rule="nonzero"/><g clip-path="url(#98e514dca6)"><path fill="#007737" d="M 129.546875 110.144531 C 135.484375 111.066406 141.875 114.402344 146.769531 120.394531 C 149.90625 124.511719 150.945312 126.507812 152.984375 129.585938 C 151.664062 129.203125 150.347656 128.984375 149.148438 128.90625 C 140.257812 119.15625 129.429688 114.800781 116.203125 119.097656 C 118.859375 120.09375 121.855469 121.433594 123.355469 124.25 C 127.691406 132.921875 117.859375 139.414062 110.367188 139.734375 C 103.214844 140.074219 95.304688 132.421875 88.730469 136.917969 C 96.164062 140.714844 101.335938 149.902344 101.835938 158.074219 C 96.820312 155.65625 90.449219 155.359375 85.234375 157.054688 C 80.398438 158.714844 77.402344 164.707031 72.25 165.386719 C 77.242188 168.925781 85.234375 161.710938 92.226562 163.886719 C 97.242188 165.328125 101.21875 168.882812 103.976562 173.199219 C 101.359375 173.957031 99.042969 175.296875 96.222656 176.695312 C 93.066406 178.375 89.570312 185.867188 85.734375 185.527344 C 92.046875 188.402344 101.878906 180.691406 110.367188 180.871094 C 117.203125 181.03125 131.347656 188.863281 126.191406 197.355469 C 124.195312 200.511719 119.699219 202.347656 116.203125 202.167969 C 119.359375 203.007812 121.695312 204.664062 125.03125 205.003906 C 128.351562 205.164062 132.027344 205.003906 135.34375 204.347656 C 140.457031 203.105469 146.132812 200.390625 150.625 196.554688 C 146.511719 209.621094 123.695312 215.414062 95.082031 198.550781 C 96.664062 192.636719 126.210938 203.886719 121.796875 191.320312 C 105.375 175.335938 79.019531 204.308594 64.355469 187.324219 C 79.679688 188.140625 81.179688 174.996094 94.40625 174.339844 C 91.128906 173 86.832031 171.300781 77.84375 173.296875 C 72.46875 174.5 67.351562 177.335938 61.859375 178.335938 C 53.007812 180.949219 37.882812 176.035156 33.070312 164.886719 C 46.054688 169.082031 54.867188 166.847656 66.355469 158.855469 C 71.347656 155.359375 75.605469 150.863281 82.097656 150.363281 C 85.773438 150.363281 89.710938 149.226562 93.367188 151.640625 C 87.074219 146.707031 89.152344 144.910156 75.003906 140.851562 C 68.851562 139.113281 61.359375 140.375 55.367188 144.371094 C 59.363281 137.875 66.113281 131.121094 73.105469 128.125 C 85.59375 122.632812 93.324219 125.390625 105.3125 130.382812 C 111.804688 132.882812 124.292969 132.382812 113.804688 124.890625 C 108.308594 121.394531 103.316406 125.628906 96.324219 116.398438 C 106.8125 116.398438 115.0625 107.90625 129.546875 110.144531 " fill-opacity="1" fill-rule="nonzero"/></g><g clip-path="url(#9378f81cf8)"><path fill="#007737" d="M 63.257812 150.324219 C 59.503906 155.917969 50.628906 161.929688 41.363281 160.550781 C 36.1875 159.671875 28.894531 150.5625 19.484375 153.859375 C 30.492188 137.957031 51.851562 153.71875 63.257812 150.324219 " fill-opacity="1" fill-rule="nonzero"/></g></svg>