<svg width="171" height="56" viewBox="0 0 171 56" fill="none" xmlns="http://www.w3.org/2000/svg">
<path d="M99.8742 17.3531C101.273 17.3531 102.406 16.2346 102.406 14.855C102.406 13.4753 101.273 12.3568 99.8742 12.3568C98.4757 12.3568 97.342 13.4753 97.342 14.855C97.342 16.2346 98.4757 17.3531 99.8742 17.3531Z" fill="#36393A"/>
<path d="M128.21 17.3531C129.609 17.3531 130.742 16.2346 130.742 14.855C130.742 13.4753 129.609 12.3568 128.21 12.3568C126.812 12.3568 125.678 13.4753 125.678 14.855C125.678 16.2346 126.812 17.3531 128.21 17.3531Z" fill="#36393A"/>
<path d="M77.4465 28.0595C77.4465 25.3234 78.0494 23.1822 79.3758 21.5167C80.7021 19.8513 82.3902 19.0186 84.5607 19.0186C86.2488 19.0186 87.6957 19.6134 88.9015 20.9219V12H93.7246V36.9814H89.3838L89.0221 35.197C87.8163 36.6245 86.2488 37.3383 84.4401 37.3383C82.3902 37.3383 80.7021 36.5056 79.3758 34.8401C78.0494 33.2937 77.4465 31.0335 77.4465 28.0595ZM82.2697 28.4164C82.2697 30.0818 82.5108 31.3903 83.1137 32.223C83.7166 33.0558 84.5606 33.5316 85.6459 33.5316C87.0928 33.5316 88.178 32.9368 88.7809 31.7472V24.7286C88.178 23.539 87.2134 22.9442 85.6459 22.9442C83.3549 22.9442 82.2697 24.7286 82.2697 28.4164Z" fill="#36393A"/>
<path d="M102.286 36.9814H97.4626V19.3755H102.286V36.9814Z" fill="#36393A"/>
<path d="M105.541 28.0596C105.541 25.3235 106.144 23.1822 107.471 21.5168C108.797 19.8514 110.485 19.0187 112.776 19.0187C114.705 19.0187 116.273 19.7324 117.358 21.041L117.599 19.3756H121.94V36.3867C121.94 37.9332 121.578 39.2417 120.855 40.4313C120.131 41.6209 119.167 42.4536 117.84 43.0484C116.514 43.6432 115.067 44.0001 113.258 44.0001C111.932 44.0001 110.726 43.7622 109.4 43.1674C108.194 42.6915 107.23 41.9778 106.627 41.1451L108.797 38.2901C110.003 39.5986 111.45 40.3124 113.138 40.3124C114.344 40.3124 115.429 39.9555 116.152 39.3607C116.876 38.6469 117.238 37.6953 117.238 36.5057V35.554C116.152 36.7436 114.705 37.3384 112.897 37.3384C110.726 37.3384 109.038 36.5057 107.712 34.8402C106.385 33.1748 105.783 31.0335 105.783 28.2975V28.0596H105.541ZM110.244 28.4164C110.244 29.9629 110.606 31.2715 111.209 32.2231C111.812 33.1748 112.776 33.5317 113.861 33.5317C115.308 33.5317 116.394 32.9369 116.996 31.8663V24.4908C116.394 23.4202 115.308 22.8254 113.861 22.8254C112.776 22.8254 111.812 23.3012 111.209 24.2529C110.606 25.2046 110.244 26.6321 110.244 28.4164Z" fill="#36393A"/>
<path d="M130.501 36.9814H125.678V19.3755H130.501V36.9814Z" fill="#36393A"/>
<path d="M134.48 19.3754V15.0929H139.303V19.3754H142.318V22.8252H139.303V31.6282C139.303 32.223 139.424 32.6988 139.665 33.0557C139.906 33.2936 140.389 33.5316 141.112 33.5316C141.594 33.5316 142.077 33.5316 142.559 33.4126V36.9814C141.594 37.2193 140.63 37.4572 139.665 37.4572C136.289 37.4572 134.601 35.7918 134.601 32.4609V19.3754" fill="#36393A"/>
<path d="M155.34 36.9814C155.099 36.5056 154.979 36.0298 154.858 35.435C153.652 36.7435 152.205 37.3383 150.397 37.3383C148.588 37.3383 147.141 36.8625 146.056 35.7918C144.85 34.8402 144.368 33.5316 144.368 31.9852C144.368 30.0818 145.091 28.6543 146.418 27.7026C147.744 26.751 149.794 26.1562 152.447 26.1562H154.617V25.2045C154.617 24.3718 154.376 23.777 154.014 23.3011C153.532 22.8253 152.929 22.5874 151.964 22.5874C151.12 22.5874 150.517 22.8253 150.035 23.1822C149.553 23.5391 149.312 24.1339 149.312 24.7286H144.488C144.488 23.658 144.85 22.7063 145.453 21.8736C146.056 21.0409 147.021 20.3272 148.106 19.8513C149.312 19.3755 150.638 19.1376 152.085 19.1376C154.255 19.1376 156.064 19.7324 157.27 20.803C158.476 21.8736 159.199 23.4201 159.199 25.4424V33.0558C159.199 34.7212 159.44 36.0298 159.922 36.8625V37.1004H155.34V36.9814ZM151.361 33.7695C152.085 33.7695 152.688 33.6506 153.291 33.2937C153.894 32.9368 154.376 32.5799 154.617 32.1041V29.1301H152.808C150.397 29.1301 149.191 29.9628 148.95 31.6283V31.8662C148.95 32.461 149.191 32.9368 149.553 33.2937C150.035 33.5316 150.638 33.7695 151.361 33.7695Z" fill="#36393A"/>
<path d="M168.122 36.9814H163.299V12H168.122V36.9814Z" fill="#36393A"/>
<path d="M69.6089 34.6022C71.0074 34.6022 72.1411 33.4838 72.1411 32.1041C72.1411 30.7244 71.0074 29.606 69.6089 29.606C68.2105 29.606 67.0768 30.7244 67.0768 32.1041C67.0768 33.4838 68.2105 34.6022 69.6089 34.6022Z" fill="#02B1D9"/>
<path d="M69.6089 26.5131C71.0074 26.5131 72.1411 25.3947 72.1411 24.015C72.1411 22.6353 71.0074 21.5168 69.6089 21.5168C68.2105 21.5168 67.0768 22.6353 67.0768 24.015C67.0768 25.3947 68.2105 26.5131 69.6089 26.5131Z" fill="#02B1D9"/>
<path d="M11.731 32.2228C11.731 31.628 11.4899 31.1521 10.887 30.9142C10.2841 30.6763 9.44003 30.3194 8.11366 30.0815C3.8934 29.2488 1.72298 27.4644 1.72298 24.7283C1.72298 23.1819 2.32587 21.8733 3.65224 20.8027C4.97861 19.7321 6.66671 19.2562 8.83713 19.2562C11.1281 19.2562 12.9368 19.7321 14.2632 20.8027C15.5896 21.8733 16.313 23.1819 16.313 24.8473H11.4899C11.4899 24.1336 11.2487 23.6577 10.887 23.1819C10.5252 22.706 9.68119 22.4681 8.83713 22.4681C7.99308 22.4681 7.39019 22.706 7.02845 23.0629C6.54613 23.4198 6.42555 23.8956 6.42555 24.3715C6.42555 24.8473 6.66671 25.3231 7.14903 25.68C7.63134 26.0369 8.4754 26.2748 9.68119 26.5127C10.887 26.7507 11.8516 26.9886 12.6957 27.3454C15.2278 28.2971 16.4336 29.8436 16.4336 32.1038C16.4336 33.7692 15.7101 34.9588 14.3838 36.0295C13.0574 37.1001 11.1281 37.5759 8.95771 37.5759C7.51076 37.5759 6.1844 37.338 4.97861 36.7432C3.77282 36.2674 2.92877 35.5536 2.20529 34.602C1.6024 33.6503 1.24066 32.6986 1.24066 31.628H5.82266C5.82266 32.4607 6.1844 33.0555 6.78729 33.5313C7.39019 34.0072 7.99308 34.0072 8.95771 34.0072C9.92234 34.0072 10.5252 33.8882 11.0076 33.5313C11.4899 33.1744 11.731 32.6986 11.731 32.2228Z" fill="#36393A"/>
<path d="M23.9095 19.3755L24.0301 21.3978C25.2359 19.8513 27.0446 19.1376 29.215 19.1376C31.506 19.1376 33.0735 20.0892 33.9176 21.8736C35.1234 20.0892 36.932 19.1376 39.223 19.1376C41.1523 19.1376 42.5992 19.7324 43.5639 20.803C44.5285 21.8736 45.0108 23.5391 45.0108 25.7993V37.1004H40.1877V25.9182C40.1877 24.9666 39.9465 24.1339 39.5848 23.777C39.223 23.3011 38.4996 23.0632 37.5349 23.0632C36.088 23.0632 35.1234 23.777 34.5205 25.0855V37.2194H29.6973V26.0372C29.6973 24.9666 29.4561 24.2528 29.0944 23.777C28.7327 23.3011 28.0092 23.0632 27.0446 23.0632C25.7182 23.0632 24.7536 23.658 24.1507 24.7287V37.2194H19.3275V19.3755H23.9095Z" fill="#36393A"/>
<path d="M54.6571 31.2714L58.0333 19.3755H62.977L56.9481 36.9814H52.3661L46.3372 19.3755H51.2809L54.6571 31.2714Z" fill="#36393A"/>
</svg>
